<svg id="Capa_1" data-name="Capa 1" xmlns="http://www.w3.org/2000/svg" viewBox="0 0 241.6 257"><defs><style>.cls-1{fill:#d3dcfb;}.cls-2{fill:#ff4155;}.cls-11,.cls-3{fill:none;stroke:#000;}.cls-11,.cls-3,.cls-6{stroke-miterlimit:10;}.cls-3{stroke-width:8px;}.cls-4,.cls-6{fill:#ebf5fc;}.cls-5{fill:#cde9f9;}.cls-6{stroke:#070707;}.cls-11,.cls-6{stroke-width:7px;}.cls-7{fill:#2a428c;}.cls-8{opacity:0.11;}.cls-9{fill:#4fabf7;}.cls-10{fill:#ffdd40;}</style></defs><rect class="cls-1" x="4.42" y="19.5" width="217.37" height="193" rx="21.8"/><path class="cls-2" d="M20.64,23H205.56a13,13,0,0,1,13,13V77a0,0,0,0,1,0,0H7.6a0,0,0,0,1,0,0V36A13,13,0,0,1,20.64,23Z"/><rect x="42.6" y="34" width="47" height="7" rx="3.5"/><rect x="138.6" y="34" width="47" height="7" rx="3.5"/><rect x="52.1" width="27.5" height="50" rx="13.75"/><rect x="147.1" width="27.5" height="50" rx="13.75"/><rect class="cls-3" x="4" y="19.38" width="217.37" height="193" rx="21.8"/><rect class="cls-4" x="58.6" y="8" width="14" height="35" rx="7"/><path class="cls-5" d="M633.5,307c3,0,5.5-3.13,5.5-7V279c0-3.87-2.46-7-5.5-7s-5.5,3.13-5.5,7v21C628,303.87,630.46,307,633.5,307Z" transform="translate(-566.4 -264)"/><rect class="cls-4" x="153.6" y="8" width="14" height="35" rx="7"/><path class="cls-6" d="M570.82,343.14H788.18V440a14.76,14.76,0,0,1-14.48,15H585.3a14.76,14.76,0,0,1-14.48-15Z" transform="translate(-566.4 -264)"/><path class="cls-5" d="M728.5,307c3,0,5.5-3.13,5.5-7V279c0-3.87-2.46-7-5.5-7s-5.5,3.13-5.5,7v21C723,303.87,725.46,307,728.5,307Z" transform="translate(-566.4 -264)"/><rect x="18.1" y="92.25" width="24" height="24" rx="6.51"/><rect class="cls-7" x="25.1" y="99.75" width="10" height="9"/><rect x="18.1" y="125.25" width="24" height="24" rx="6.51"/><rect class="cls-7" x="25.1" y="132.75" width="10" height="9"/><rect x="18.1" y="158.25" width="24" height="24" rx="6.51"/><rect class="cls-7" x="25.1" y="165.75" width="10" height="9"/><rect x="52.1" y="125.25" width="24" height="24" rx="6.51"/><rect class="cls-7" x="59.1" y="132.75" width="10" height="9"/><rect x="52.1" y="158.25" width="24" height="24" rx="6.51"/><rect class="cls-7" x="59.1" y="165.75" width="10" height="9"/><rect x="84.1" y="125.25" width="24" height="24" rx="6.51"/><rect class="cls-7" x="91.1" y="132.75" width="10" height="9"/><rect x="84.1" y="158.25" width="24" height="24" rx="6.51"/><rect class="cls-7" x="91.1" y="165.75" width="10" height="9"/><rect x="118.1" y="125.25" width="24" height="24" rx="6.51"/><path class="cls-8" d="M767,287c6.08,1.83,9.44,8.87,8.85,23.5V491h14.54V300.91A13.92,13.92,0,0,0,776.47,287Z" transform="translate(-566.4 -264)"/><rect class="cls-7" x="125.1" y="132.75" width="10" height="9"/><rect x="52.1" y="92.25" width="24" height="24" rx="6.51"/><rect class="cls-7" x="59.1" y="99.75" width="10" height="9"/><rect x="84.1" y="92.25" width="24" height="24" rx="6.51"/><rect class="cls-7" x="91.1" y="99.75" width="10" height="9"/><rect x="117.1" y="92.25" width="24" height="24" rx="6.51"/><circle cx="175.6" cy="191" r="66"/><circle class="cls-9" cx="175.6" cy="191" r="59"/><circle cx="175.6" cy="191" r="50"/><circle class="cls-1" cx="175.6" cy="191" r="42"/><rect class="cls-7" x="124.1" y="99.75" width="10" height="9"/><rect x="150.1" y="92.25" width="24" height="24" rx="6.51"/><rect class="cls-7" x="157.1" y="99.75" width="10" height="9"/><ellipse class="cls-4" cx="171.85" cy="191.25" rx="38.25" ry="41.25"/><rect x="184.1" y="92.25" width="24" height="24" rx="6.51"/><rect class="cls-7" x="191.1" y="99.75" width="10" height="9"/><circle cx="175.6" cy="191" r="13"/><rect x="171.6" y="157" width="8" height="25" rx="3.42"/><rect x="750.5" y="442.5" width="8" height="25" rx="3.42" transform="translate(643.1 -563.5) rotate(90)"/><circle class="cls-10" cx="175.6" cy="191" r="5"/><rect class="cls-11" x="4.42" y="62.14" width="217.37" height="17.39"/></svg>